<?xml version="1.0" standalone="no"?><!DOCTYPE svg PUBLIC "-//W3C//DTD SVG 1.1//EN" "http://www.w3.org/Graphics/SVG/1.1/DTD/svg11.dtd"><svg t="1635390204784" class="icon" viewBox="0 0 1024 1024" version="1.1" xmlns="http://www.w3.org/2000/svg" p-id="2492" xmlns:xlink="http://www.w3.org/1999/xlink" width="200" height="200"><defs><style type="text/css"></style></defs><path d="M921.6 1024H102.4a51.2 51.2 0 0 1 0-102.4h819.2a51.2 51.2 0 1 1 0 102.4zM358.4 819.2H153.6a51.2 51.2 0 0 1-51.2-51.2V563.2a51.2 51.2 0 0 1 14.99136-36.18816l512-512a51.2 51.2 0 0 1 72.3968 0l204.8 204.8a51.2 51.2 0 0 1 0 72.3968l-512 512A51.2 51.2 0 0 1 358.4 819.2z m-153.6-102.4h132.4032l460.8-460.8L665.6 123.5968l-460.8 460.8z" p-id="2493" fill="#ffffff"></path></svg>